<svg xmlns="http://www.w3.org/2000/svg" width="200" height="200" viewBox="0 0 200 200"><defs><style>.cls-1{fill:#ff6b6b;}.cls-2{fill:#fff;font-family:Arial-BoldMT, Arial;font-size:24px;font-weight:700;}</style></defs><circle class="cls-1" cx="100" cy="100" r="90"/><path class="cls-2" d="M100,50 c-15,0 -27.5,12.5 -27.5,27.5 c0,15 12.5,27.5 27.5,27.5 c15,0 27.5,-12.5 27.5,-27.5 c0,-15 -12.5,-27.5 -27.5,-27.5 z M100,95 c-9.6,0 -17.5,-7.9 -17.5,-17.5 c0,-9.6 7.9,-17.5 17.5,-17.5 c9.6,0 17.5,7.9 17.5,17.5 c0,9.6 -7.9,17.5 -17.5,17.5 z"/><path class="cls-2" d="M142.5,105 c-7.5,-7.5 -17.5,-11.7 -28.2,-11.7 h-28.6 c-10.7,0 -20.7,4.2 -28.2,11.7 c-7.5,7.5 -11.7,17.5 -11.7,28.2 v6.8 h108.4 v-6.8 c0,-10.7 -4.2,-20.7 -11.7,-28.2 z M55.8,130 c1.4,-6.3 4.9,-12 9.9,-16.3 c5.7,-5 13.1,-7.7 20.9,-7.7 h28.6 c7.8,0 15.2,2.7 20.9,7.7 c5,4.3 8.5,10 9.9,16.3 h-90.2 z"/></svg>